<?xml version="1.0" standalone="no"?>
<!DOCTYPE svg PUBLIC "-//W3C//DTD SVG 20010904//EN"
 "http://www.w3.org/TR/2001/REC-SVG-20010904/DTD/svg10.dtd">
<svg version="1.0" xmlns="http://www.w3.org/2000/svg"
 width="400.000000pt" height="400.000000pt" viewBox="0 0 400.000000 400.000000"
 preserveAspectRatio="xMidYMid meet">
<metadata>
Created by potrace 1.14, written by Peter Selinger 2001-2017
</metadata>
<g transform="translate(0.000000,400.000000) scale(0.100000,-0.100000)"
fill="#000000" stroke="none">
<path d="M1676 3196 c-75 -28 -142 -102 -161 -177 -5 -21 -1 -29 20 -43 31
-20 45 -14 45 22 1 81 95 157 185 149 42 -4 54 -10 82 -42 18 -21 33 -47 33
-57 0 -26 28 -34 59 -16 34 21 172 34 199 19 24 -13 46 -72 37 -100 -3 -11 -1
-29 5 -41 10 -18 17 -20 78 -15 77 7 93 -1 111 -57 12 -37 12 -37 74 -40 l62
-3 5 -60 5 -60 63 -25 c35 -14 81 -40 103 -58 33 -28 39 -39 39 -71 0 -25 -7
-44 -20 -56 -11 -10 -20 -22 -20 -28 0 -5 20 -31 44 -58 39 -44 55 -78 61
-133 3 -27 -38 -127 -73 -178 -38 -54 -89 -107 -180 -183 -116 -98 -208 -121
-255 -65 -33 38 -41 79 -27 127 6 21 17 65 25 98 7 33 34 104 59 158 48 103
54 127 34 127 -22 -1 -81 -98 -142 -230 -20 -44 -46 -155 -46 -198 0 -45 25
-101 62 -139 42 -43 103 -51 178 -23 79 29 89 26 139 -33 42 -50 43 -53 37
-105 -4 -30 -11 -62 -16 -72 -22 -42 -12 -81 32 -122 23 -21 44 -38 48 -38 7
0 29 -48 60 -132 12 -32 26 -60 31 -63 14 -9 11 -103 -5 -133 -35 -67 -111
-96 -210 -80 -62 10 -65 10 -231 -47 -156 -54 -172 -57 -234 -52 -90 7 -164
42 -240 113 l-63 58 -167 1 c-178 0 -182 1 -286 64 -49 30 -126 98 -142 125
-27 47 -7 210 28 221 47 15 9 66 -60 79 -41 7 -71 32 -71 57 0 9 20 38 45 62
50 50 59 89 25 107 -45 24 -33 104 27 192 20 29 45 59 55 66 10 8 24 19 30 26
8 8 38 11 98 8 71 -4 88 -1 99 12 22 27 -9 51 -62 49 -102 -4 -157 36 -157
111 0 41 -27 86 -51 86 -18 0 -28 47 -17 86 14 52 55 101 106 125 48 24 62 44
62 89 0 47 73 119 169 166 92 45 107 70 35 60 -25 -3 -69 -18 -97 -33 -69 -38
-154 -121 -162 -158 -4 -16 -8 -35 -10 -41 -6 -20 -111 -74 -142 -74 -36 0
-52 16 -59 62 -12 68 109 191 214 218 47 11 50 19 25 61 -17 29 -17 29 17 64
30 31 94 69 145 86 13 5 3 7 -28 8 -29 1 -62 -6 -86 -18 -53 -28 -111 -90
-111 -121 0 -21 -13 -33 -68 -67 -115 -72 -162 -139 -162 -233 0 -50 3 -59 33
-87 17 -17 41 -33 52 -35 11 -2 18 -10 16 -19 -28 -107 -25 -133 19 -177 16
-17 30 -39 30 -50 0 -25 28 -92 46 -113 13 -14 8 -23 -47 -79 -98 -100 -134
-197 -104 -276 l17 -46 -32 -33 c-21 -21 -33 -46 -37 -71 -8 -61 9 -89 70
-118 l55 -25 -19 -68 c-25 -93 -10 -183 40 -236 46 -50 157 -127 223 -154 58
-25 76 -27 222 -29 l159 -3 59 -53 c70 -63 160 -103 252 -113 69 -8 136 8 308
72 70 25 84 27 211 23 49 -2 82 1 90 9 6 6 19 11 29 11 24 0 96 73 114 116 8
18 14 65 14 105 l0 71 54 53 c38 36 66 55 91 59 43 8 100 59 110 98 4 14 19
38 34 52 24 23 37 27 116 30 111 6 130 20 127 97 -2 58 -11 77 -60 138 -40 49
-83 71 -141 71 -64 0 -112 -25 -146 -75 -20 -30 -35 -43 -45 -39 -8 4 -39 9
-68 12 -43 4 -58 1 -87 -19 -40 -27 -90 -119 -100 -184 -10 -67 -20 -75 -52
-43 -26 26 -26 29 -14 64 7 20 13 63 12 96 -1 67 -18 102 -75 156 -19 18 -33
38 -30 45 2 7 20 23 39 36 124 84 245 285 245 405 0 36 -40 126 -69 157 -18
20 -19 24 -6 50 19 36 19 82 1 118 -23 44 -88 96 -144 116 l-52 19 0 48 c0 63
-35 98 -98 98 -38 0 -45 4 -62 33 -26 44 -60 61 -125 61 l-54 1 -11 41 c-15
52 -50 90 -90 99 -17 4 -70 1 -118 -5 -61 -9 -87 -10 -90 -2 -9 28 -50 78 -77
93 -43 25 -122 32 -169 15z m1571 -1511 c32 -37 50 -86 38 -105 -3 -5 -32 -10
-63 -10 -108 0 -157 -29 -204 -124 -23 -44 -30 -50 -93 -75 -54 -20 -76 -35
-101 -68 l-32 -42 -13 32 c-28 66 -7 219 41 300 20 34 26 37 65 37 23 0 56 -7
71 -15 50 -26 70 -20 92 29 31 65 66 89 122 83 36 -4 51 -12 77 -42z"/>
<path d="M1711 2564 c-35 -43 -46 -80 -30 -100 26 -31 76 -12 108 41 24 41 26
66 9 83 -22 22 -56 13 -87 -24z"/>
<path d="M2081 2384 c-33 -23 -55 -79 -41 -104 16 -30 61 -26 94 9 27 28 37
75 22 100 -10 16 -48 14 -75 -5z"/>
<path d="M1774 2315 c-3 -8 -3 -19 1 -24 3 -6 -6 -27 -21 -46 -30 -40 -48
-131 -23 -123 8 3 17 23 21 46 10 58 35 102 58 102 13 0 20 7 20 18 0 36 -45
57 -56 27z"/>
</g>
</svg>
